<?xml version="1.0" encoding="UTF-8" standalone="no"?><!-- Generator: Gravit.io --><svg xmlns="http://www.w3.org/2000/svg" xmlns:xlink="http://www.w3.org/1999/xlink" style="isolation:isolate" viewBox="0 0 150 36" width="150pt" height="36pt"><defs><clipPath id="_clipPath_mXexFZyEpJMiAhg4zrbZSIdizsYLTHPp"><rect width="150" height="36"/></clipPath></defs><g clip-path="url(#_clipPath_mXexFZyEpJMiAhg4zrbZSIdizsYLTHPp)"><linearGradient id="_lgradient_1" x1="-0.34732001356463327" y1="-0.3182130584192434" x2="1.2432046986972007" y2="1.1079370143638627" gradientTransform="matrix(34.351,0,0,36,0,0)" gradientUnits="userSpaceOnUse"><stop offset="1.6666666666666667%" stop-opacity="1" style="stop-color:rgb(238,110,107)"/><stop offset="97.08333333333333%" stop-opacity="1" style="stop-color:rgb(238,110,107)"/></linearGradient><path d=" M 34.351 0 L 34.351 36 L 15.614 36 L 15.614 25.091 L 0 25.091 L 0 0 L 34.351 0 Z " fill="url(#_lgradient_1)"/><path d=" M 48.021 27.48 L 37.203 27.48 L 37.203 8.001 L 41.368 8.001 L 41.368 23.941 L 48.021 23.941 L 48.021 27.48 Z  M 53.37 19.603 L 59.304 19.603 L 59.304 19.603 Q 59.144 18.366 58.406 17.734 L 58.406 17.734 L 58.406 17.734 Q 57.667 17.102 56.39 17.102 L 56.39 17.102 L 56.39 17.102 Q 55.113 17.102 54.348 17.734 L 54.348 17.734 L 54.348 17.734 Q 53.582 18.366 53.37 19.603 L 53.37 19.603 Z  M 63.056 21.892 L 63.056 21.892 L 53.25 21.892 L 53.25 21.892 Q 53.476 23.302 54.274 24.001 L 54.274 24.001 L 54.274 24.001 Q 55.073 24.699 56.443 24.699 L 56.443 24.699 L 56.443 24.699 Q 57.481 24.699 58.233 24.3 L 58.233 24.3 L 58.233 24.3 Q 58.985 23.901 59.49 23.089 L 59.49 23.089 L 62.551 24.62 L 62.551 24.62 Q 61.486 26.336 59.969 27.168 L 59.969 27.168 L 59.969 27.168 Q 58.452 27.999 56.363 27.999 L 56.363 27.999 L 56.363 27.999 Q 53.197 27.999 51.347 26.11 L 51.347 26.11 L 51.347 26.11 Q 49.498 24.22 49.498 21.027 L 49.498 21.027 L 49.498 21.027 Q 49.498 17.953 51.434 15.971 L 51.434 15.971 L 51.434 15.971 Q 53.37 13.988 56.39 13.988 L 56.39 13.988 L 56.39 13.988 Q 59.504 13.988 61.313 15.844 L 61.313 15.844 L 61.313 15.844 Q 63.123 17.701 63.123 20.907 L 63.123 20.907 L 63.123 20.907 Q 63.123 21.08 63.109 21.287 L 63.109 21.287 L 63.109 21.287 Q 63.096 21.493 63.056 21.892 Z  M 75.55 20.934 L 75.55 20.934 L 75.55 20.934 Q 75.55 19.178 74.665 18.153 L 74.665 18.153 L 74.665 18.153 Q 73.781 17.128 72.277 17.128 L 72.277 17.128 L 72.277 17.128 Q 70.734 17.128 69.849 18.146 L 69.849 18.146 L 69.849 18.146 Q 68.964 19.164 68.964 20.934 L 68.964 20.934 L 68.964 20.934 Q 68.964 22.704 69.835 23.688 L 69.835 23.688 L 69.835 23.688 Q 70.707 24.673 72.25 24.673 L 72.25 24.673 L 72.25 24.673 Q 73.821 24.673 74.685 23.688 L 74.685 23.688 L 74.685 23.688 Q 75.55 22.704 75.55 20.934 Z  M 79.01 14.427 L 79.01 27.48 L 75.337 27.48 L 75.391 25.604 L 75.391 25.604 Q 74.619 26.842 73.534 27.42 L 73.534 27.42 L 73.534 27.42 Q 72.45 27.999 70.893 27.999 L 70.893 27.999 L 70.893 27.999 Q 68.299 27.999 66.709 26.07 L 66.709 26.07 L 66.709 26.07 Q 65.119 24.141 65.119 20.974 L 65.119 20.974 L 65.119 20.974 Q 65.119 17.674 66.682 15.831 L 66.682 15.831 L 66.682 15.831 Q 68.245 13.988 71.026 13.988 L 71.026 13.988 L 71.026 13.988 Q 72.477 13.988 73.574 14.64 L 73.574 14.64 L 73.574 14.64 Q 74.672 15.292 75.417 16.583 L 75.417 16.583 L 75.417 14.427 L 79.01 14.427 Z  M 86.315 14.427 L 86.235 17.78 L 86.235 17.78 Q 86.807 15.878 87.878 14.933 L 87.878 14.933 L 87.878 14.933 Q 88.949 13.988 90.533 13.988 L 90.533 13.988 L 90.533 13.988 Q 90.892 13.988 91.717 14.121 L 91.717 14.121 L 91.717 14.121 Q 91.876 14.148 91.956 14.161 L 91.956 14.161 L 91.384 18.233 L 91.384 18.233 Q 90.958 18.06 90.526 17.973 L 90.526 17.973 L 90.526 17.973 Q 90.093 17.887 89.614 17.887 L 89.614 17.887 L 89.614 17.887 Q 87.885 17.887 87.126 18.772 L 87.126 18.772 L 87.126 18.772 Q 86.368 19.657 86.368 21.732 L 86.368 21.732 L 86.368 27.48 L 82.576 27.48 L 82.576 14.427 L 86.315 14.427 Z  M 97.465 27.48 L 93.673 27.48 L 93.673 14.427 L 97.385 14.427 L 97.385 16.476 L 97.385 16.476 Q 98.41 15.199 99.587 14.594 L 99.587 14.594 L 99.587 14.594 Q 100.765 13.988 102.202 13.988 L 102.202 13.988 L 102.202 13.988 Q 103.719 13.988 104.75 14.501 L 104.75 14.501 L 104.75 14.501 Q 105.781 15.013 106.38 16.064 L 106.38 16.064 L 106.38 16.064 Q 106.672 16.61 106.799 17.295 L 106.799 17.295 L 106.799 17.295 Q 106.925 17.98 106.925 19.444 L 106.925 19.444 L 106.925 19.856 L 106.925 27.48 L 103.133 27.48 L 103.133 21.027 L 103.133 21.027 Q 103.133 18.619 102.574 17.847 L 102.574 17.847 L 102.574 17.847 Q 102.015 17.075 100.658 17.075 L 100.658 17.075 L 100.658 17.075 Q 99.873 17.075 99.215 17.401 L 99.215 17.401 L 99.215 17.401 Q 98.556 17.727 98.117 18.326 L 98.117 18.326 L 98.117 18.326 Q 97.771 18.792 97.618 19.39 L 97.618 19.39 L 97.618 19.39 Q 97.465 19.989 97.465 21.213 L 97.465 21.213 L 97.465 21.732 L 97.465 27.48 Z  M 120.111 23.143 L 120.138 27.094 L 120.138 27.094 Q 119.366 27.56 118.514 27.78 L 118.514 27.78 L 118.514 27.78 Q 117.663 27.999 116.652 27.999 L 116.652 27.999 L 116.652 27.999 Q 113.565 27.999 111.622 26.037 L 111.622 26.037 L 111.622 26.037 Q 109.679 24.074 109.679 20.934 L 109.679 20.934 L 109.679 20.934 Q 109.679 17.86 111.635 15.924 L 111.635 15.924 L 111.635 15.924 Q 113.591 13.988 116.705 13.988 L 116.705 13.988 L 116.705 13.988 Q 117.743 13.988 118.568 14.188 L 118.568 14.188 L 118.568 14.188 Q 119.393 14.387 120.138 14.813 L 120.138 14.813 L 120.111 18.619 L 120.111 18.619 Q 119.512 18.007 118.727 17.674 L 118.727 17.674 L 118.727 17.674 Q 117.942 17.341 117.064 17.341 L 117.064 17.341 L 117.064 17.341 Q 115.467 17.341 114.509 18.319 L 114.509 18.319 L 114.509 18.319 Q 113.551 19.297 113.551 20.907 L 113.551 20.907 L 113.551 20.907 Q 113.551 22.557 114.529 23.535 L 114.529 23.535 L 114.529 23.535 Q 115.507 24.513 117.171 24.513 L 117.171 24.513 L 117.171 24.513 Q 118.089 24.513 118.801 24.181 L 118.801 24.181 L 118.801 24.181 Q 119.512 23.848 120.111 23.143 L 120.111 23.143 Z  M 126.059 19.603 L 131.993 19.603 L 131.993 19.603 Q 131.834 18.366 131.095 17.734 L 131.095 17.734 L 131.095 17.734 Q 130.357 17.102 129.079 17.102 L 129.079 17.102 L 129.079 17.102 Q 127.802 17.102 127.037 17.734 L 127.037 17.734 L 127.037 17.734 Q 126.272 18.366 126.059 19.603 L 126.059 19.603 Z  M 135.745 21.892 L 135.745 21.892 L 125.939 21.892 L 125.939 21.892 Q 126.165 23.302 126.964 24.001 L 126.964 24.001 L 126.964 24.001 Q 127.762 24.699 129.132 24.699 L 129.132 24.699 L 129.132 24.699 Q 130.17 24.699 130.922 24.3 L 130.922 24.3 L 130.922 24.3 Q 131.674 23.901 132.179 23.089 L 132.179 23.089 L 135.24 24.62 L 135.24 24.62 Q 134.175 26.336 132.658 27.168 L 132.658 27.168 L 132.658 27.168 Q 131.142 27.999 129.053 27.999 L 129.053 27.999 L 129.053 27.999 Q 125.886 27.999 124.036 26.11 L 124.036 26.11 L 124.036 26.11 Q 122.187 24.22 122.187 21.027 L 122.187 21.027 L 122.187 21.027 Q 122.187 17.953 124.123 15.971 L 124.123 15.971 L 124.123 15.971 Q 126.059 13.988 129.079 13.988 L 129.079 13.988 L 129.079 13.988 Q 132.193 13.988 134.002 15.844 L 134.002 15.844 L 134.002 15.844 Q 135.812 17.701 135.812 20.907 L 135.812 20.907 L 135.812 20.907 Q 135.812 21.08 135.799 21.287 L 135.799 21.287 L 135.799 21.287 Q 135.785 21.493 135.745 21.892 Z  M 142.358 14.427 L 142.279 17.78 L 142.279 17.78 Q 142.851 15.878 143.922 14.933 L 143.922 14.933 L 143.922 14.933 Q 144.993 13.988 146.576 13.988 L 146.576 13.988 L 146.576 13.988 Q 146.936 13.988 147.76 14.121 L 147.76 14.121 L 147.76 14.121 Q 147.92 14.148 148 14.161 L 148 14.161 L 147.428 18.233 L 147.428 18.233 Q 147.002 18.06 146.57 17.973 L 146.57 17.973 L 146.57 17.973 Q 146.137 17.887 145.658 17.887 L 145.658 17.887 L 145.658 17.887 Q 143.928 17.887 143.17 18.772 L 143.17 18.772 L 143.17 18.772 Q 142.412 19.657 142.412 21.732 L 142.412 21.732 L 142.412 27.48 L 138.619 27.48 L 138.619 14.427 L 142.358 14.427 Z " fill="rgb(255,255,255)"/></g></svg>